**ABCDEFGHIJKLMNOPQRSTUVWXYZabcdefghijklmnopqrstuvwxyz**************************
**PARASOLID !"#$%&'()*+,-./:;<=>?@[\]^_`{|}~0123456789**************************
**PART1;
MC=AMD64;
MC_MODEL=Intel64 Family 6 Model 158 Stepping 9, GenuineIntel;
MC_ID=unknown;
OS=Windows_NT;
OS_RELEASE=unknown;
FRU=Parasolid Version 29.0, build 201,  4-17-2017;
APPL=SOLIDWORKS 2017-2017317;
SITE=;
USER=unknown;
FORMAT=text;
GUISE=transmit;
KEY=50mm Flate Plate;
FILE=50mm Flate Plate.x_t;
DATE=Sun Feb 18 20:49:24 2018;
**PART2;
SCH=SCH_2900201_28101;
USFLD_SIZE=0;
**PART3;
**END_OF_HEADER*****************************************************************
T51 : TRANSMIT FILE created by modeller version 290020123 SCH_2900201_28101_1300
6203 0 12 33 CCCCCCI4 mesh1006 0 I8 polyline1008 0 CCCCCCCDI5 owner1040 0 CCCCCC
I13 boundary_mesh1006 0 I17 boundary_polyline1008 0 CCCA16 index_map_offset0 0 1
 dA9 index_map82 0 A17 node_id_index_map82 0 A20 schema_embedding_map82 0 A5 chi
ld12 0 A14 lowest_node_id0 0 1 dZ1 53 0 2 0 0 0 0 0 0 1e3 1e-8 0 3 0 1 0 3 1 4 5
 6 7 0 0 8 9 10 0 0 0 0 0 0 70 11 CI9 list_type0 0 1 uI10 notransmit0 0 1 lCCCDC
CDI12 finger_index0 0 1 dI12 finger_block1012 0 CZ2 0 4 T1 0 0 2 20 1 11 11 13 2
55 4 29 0 1 0 12 0 0 8 12 50 255 5 2 0 12 0 0 0 +0 0 0 0 0 -1 -1 0 0 30 255 6 14
 0 9 13 0 0 +0 .05 0 -1 0 0 29 255 7 27 0 10 14 0 0 .05 0 19 8 CCCCCCCA5 owner12
 0 Z8 28 0 1 0 0 4 V0 16 255 9 13 0 ?15 0 16 6 0 0 1 18 255 10 25 0 17 0 18 7 ?1
 17 255 17 0 0 0 0 10 19 20 0 15 -18 18 22 0 21 10 22 14 ?1 17 21 0 23 15 24 18
 25 16 0 26 +18 22 19 0 24 18 27 28 ?1 29 14 24 0 18 28 7 .05 .05 0 29 28 21 0 2
2 29 14 .05 0 0 29 29 18 0 27 0 28 0 0 0 18 27 16 0 19 22 0 29 ?1 17 19 0 23 24
 15 27 17 20 0 30 +15 255 23 3 0 19 12 0 17 24 0 23 21 19 22 30 31 0 25 +17 15 0
 23 19 21 10 26 9 0 0 +16 20 4 0 ?19 31 0 32 0 0 1 17 30 0 0 0 0 27 24 31 0 0 -1
6 31 7 0 ?24 16 20 33 0 0 1 16 16 10 0 ?21 9 31 13 0 0 1 30 33 8 0 31 32 13 0 +0
 0 0 1 0 0 30 32 5 0 20 0 33 0 +0 0 0 0 -1 0 30 13 11 0 16 33 6 0 +.05 0 0 0 1 0
 17 26 0 0 0 0 18 15 9 0 0 -17 25 0 0 0 0 22 21 16 0 0 -14 255 12 1 34 ?0 0 23 4
 5 -0 0 0 0 4 81 255 1 34 53 35 12 36 0 0 0 37 80 255 1 35 38 39 9000 1 1 1 1 1
 1 1 1 0 FFFFTFTFFFFFFF1 81 1 36 44 40 12 0 34 0 0 41 82 255 1 37 -1592721296 80
 1 40 0 42 8001 0 0 0 0 3 5 0 0 0 FFFFTFTFFFFFFF2 83 255 3 41 .792156862745098 .
819607843137255 .933333333333333 79 255 15 42 SDL/TYSA_COLOUR79 14 39 SWEntUncha
nged74 4 CI16 index_map_offset0 0 1 dCCZ20 11 2 0 0 36 34 0 0 0 0 0 0 0 0 0 0 0
 0 0 0 0 0 0 0 1 0 
